<svg id="Слой_1" data-name="Слой 1" xmlns="http://www.w3.org/2000/svg" viewBox="0 0 404.72 88.83"><defs><style>.cls-1{fill:#e10c19;}</style></defs><path class="cls-1" d="M435.68,575.23a7.75,7.75,0,0,1-.69,3.31,5.65,5.65,0,0,1-2.08,2.39,5.72,5.72,0,0,1-3.24.91,4.85,4.85,0,0,1-3.54-1.24,4.72,4.72,0,0,1-1.27-3.54,6.54,6.54,0,0,1,1.65-4.56,5.58,5.58,0,0,1,4.36-1.82,5,5,0,0,1,3.49,1.19A4.31,4.31,0,0,1,435.68,575.23Zm-5-2a2,2,0,0,0-1.21.38,2.62,2.62,0,0,0-.82,1,6.37,6.37,0,0,0-.44,1.27,5.71,5.71,0,0,0-.15,1.27,2.2,2.2,0,0,0,.47,1.51,1.65,1.65,0,0,0,1.32.53,1.77,1.77,0,0,0,1.42-.71,4.25,4.25,0,0,0,.84-1.58,6.08,6.08,0,0,0,.24-1.64,2.59,2.59,0,0,0-.4-1.48A1.48,1.48,0,0,0,430.72,573.28Z" transform="translate(-337.97 -495.25)"/><path class="cls-1" d="M449.71,575.73a4.48,4.48,0,0,1-.76,2.61,4.63,4.63,0,0,1-2,1.66,6.55,6.55,0,0,1-2.72.56h-.32l-.22,1h-3.2l.22-1.06a4.28,4.28,0,0,1-2.92-1.15,3.5,3.5,0,0,1-1.05-2.57,4.54,4.54,0,0,1,.76-2.62,4.7,4.7,0,0,1,2-1.66,6.55,6.55,0,0,1,2.72-.55h.32l.22-1H446l-.22,1.06a4.32,4.32,0,0,1,2.93,1.15A3.54,3.54,0,0,1,449.71,575.73ZM442,574.31H442a1.68,1.68,0,0,0-1.43.71,2.81,2.81,0,0,0-.51,1.66c0,.94.39,1.45,1.19,1.53Zm4.39,1.54c0-.94-.39-1.45-1.19-1.53l-.81,3.9h.06a1.65,1.65,0,0,0,1.43-.71A2.79,2.79,0,0,0,446.42,575.85Z" transform="translate(-337.97 -495.25)"/><path class="cls-1" d="M461.82,570.94l-2.27,10.65h-3.11l.85-4c.24-1.1.46-2,.65-2.61l-4.5,6.62h-3.5l2.27-10.65h3.12l-.86,4c-.24,1.08-.45,1.92-.61,2.53l4.48-6.57Z" transform="translate(-337.97 -495.25)"/><path class="cls-1" d="M473.17,570.94l-1.66,7.87h1.31l-1.12,5.27h-3l.52-2.49h-7.74l2.26-10.65H467l-1.66,7.87h2.93l1.66-7.87Z" transform="translate(-337.97 -495.25)"/><path class="cls-1" d="M484.79,570.94l-2.27,10.65h-3.11l.86-4c.24-1.1.45-2,.64-2.61l-4.5,6.62h-3.5l2.27-10.65h3.13l-.87,4c-.24,1.08-.44,1.92-.61,2.53l4.48-6.57Z" transform="translate(-337.97 -495.25)"/><path class="cls-1" d="M492.71,570.94l1.68,10.65h-3.23l-.18-1.51H487.5l-.82,1.51h-3.37l6.19-10.65Zm-2.28,3.38c-.27.65-.65,1.42-1.12,2.32l-.62,1.14h2.05l-.21-1.9A14.8,14.8,0,0,1,490.43,574.32Z" transform="translate(-337.97 -495.25)"/><path class="cls-1" d="M498.62,570.94H507l-2.26,10.65h-3.25l1.68-7.91h-2l-.13.63a31.54,31.54,0,0,1-1.21,4.51,4.32,4.32,0,0,1-2.47,2.74,4.54,4.54,0,0,1-1.47.22,3.49,3.49,0,0,1-1.4-.24l.54-2.52a1.22,1.22,0,0,0,.72.16c.43,0,.78-.28,1-.84a17.17,17.17,0,0,0,.79-2.82Z" transform="translate(-337.97 -495.25)"/><path class="cls-1" d="M516.81,577.48a4.3,4.3,0,0,1-.47,2,3.65,3.65,0,0,1-1.28,1.44,6.1,6.1,0,0,1-3.23.7h-5.14L509,570.94h3.26l-.72,3.32h1.39a5,5,0,0,1,2.88.73A2.82,2.82,0,0,1,516.81,577.48Zm-3.14.25a.81.81,0,0,0-.34-.77,2,2,0,0,0-1-.2H511L510.5,579H512a2.4,2.4,0,0,0,1.25-.26A1.09,1.09,0,0,0,513.67,577.73Z" transform="translate(-337.97 -495.25)"/><path class="cls-1" d="M529.08,570.94l-2.26,10.65h-3.25l.89-4.2H521.4l-.91,4.2h-3.25l2.26-10.65h3.26l-.8,3.68H525l.8-3.68Z" transform="translate(-337.97 -495.25)"/><path class="cls-1" d="M538.23,577.48a4.3,4.3,0,0,1-.47,2,3.73,3.73,0,0,1-1.28,1.44,6.1,6.1,0,0,1-3.23.7h-4.69l2.27-10.65h3.26l-.72,3.32h.94a5,5,0,0,1,2.88.73A2.82,2.82,0,0,1,538.23,577.48Zm-3.14.25a.83.83,0,0,0-.34-.77,2,2,0,0,0-1-.2h-.94l-.46,2.24h1a2.4,2.4,0,0,0,1.25-.26A1.09,1.09,0,0,0,535.09,577.73Zm9.12-6.79-2.28,10.65h-3.25L541,570.94Z" transform="translate(-337.97 -495.25)"/><path class="cls-1" d="M555.23,570.94,553,581.59h-3.11l.85-4c.28-1.27.5-2.15.65-2.61l-4.5,6.62h-3.5l2.26-10.65h3.12l-.85,4c-.18.82-.39,1.66-.61,2.53l4.46-6.57Zm-7-2.91h1.61v.12q0,.84,1,.84a1.42,1.42,0,0,0,1.46-1h1.57a2.68,2.68,0,0,1-1.05,1.89,3.5,3.5,0,0,1-2.14.64c-1.67,0-2.5-.67-2.5-2C548.17,568.46,548.18,568.29,548.2,568Z" transform="translate(-337.97 -495.25)"/><path class="cls-1" d="M563.93,570.94h8.16l-1.68,7.93h1.32l-1.11,5.2h-3l.52-2.48h-5.9l-.52,2.48h-3l1.11-5.2h1a15.2,15.2,0,0,0,2.88-7Zm3.28,7.93,1.11-5.25h-2l-.15.72a11.81,11.81,0,0,1-.82,2.48,13.84,13.84,0,0,1-1.11,2Z" transform="translate(-337.97 -495.25)"/><path class="cls-1" d="M583.91,570.94l-2.27,10.65h-3.11l.85-4c.24-1.1.45-2,.64-2.61l-4.5,6.62H572l2.26-10.65h3.13l-.87,4c-.24,1.08-.44,1.92-.61,2.53l4.48-6.57Z" transform="translate(-337.97 -495.25)"/><path class="cls-1" d="M586.94,570.94h8.42l-2.26,10.65h-3.25l1.68-7.91h-2l-.13.63a30.22,30.22,0,0,1-1.21,4.51,4.32,4.32,0,0,1-2.47,2.74,4.52,4.52,0,0,1-1.46.22,3.51,3.51,0,0,1-1.41-.24l.54-2.52a1.22,1.22,0,0,0,.71.16c.44,0,.79-.28,1-.84a16.21,16.21,0,0,0,.79-2.82Z" transform="translate(-337.97 -495.25)"/><path class="cls-1" d="M606.16,570.94l-.55,2.59H600l-.29,1.33h5.2l-.53,2.47h-5.18l-.33,1.55h5.74l-.58,2.71h-9l2.25-10.65Z" transform="translate(-337.97 -495.25)"/><path class="cls-1" d="M607.85,570.94h4.61a4.94,4.94,0,0,1,2.87.74,2.86,2.86,0,0,1,1,2.51,4.15,4.15,0,0,1-.47,2,3.65,3.65,0,0,1-1.28,1.44,6.06,6.06,0,0,1-3.22.7h-1.89l-.69,3.29H605.6Zm2.66,2.62-.46,2.24h1.48a2.42,2.42,0,0,0,1.25-.26,1.07,1.07,0,0,0,.43-1,.83.83,0,0,0-.34-.77,2,2,0,0,0-1-.2Z" transform="translate(-337.97 -495.25)"/><path class="cls-1" d="M707.87,519.84c-22.35.73-30.36,11.41-31.62,18.72-1.68,9.83,1.47,18.14,16.82,22.13,19.09,4.94,37.81-4.65,40.77-19.26,2.7-13.34-13.52-22-26-21.59m4.58,24.57c-2.9,7.24-5.14,9.49-11.71,8.94-5.52-.47-7.42-6.37-4.48-14.79,2.35-6.7,5.71-10.94,11.82-10.42,5.28.45,8.42,6.11,4.37,16.27" transform="translate(-337.97 -495.25)"/><polygon class="cls-1" points="286.75 25.76 305.81 25.76 310.49 42.67 319.76 25.98 340.83 26.08 310.23 81.69 289.63 81.81 298.04 66.6 286.75 25.76"/><path class="cls-1" d="M566.18,560.26l11.6-39.35h18.31l1.28,3.72s8.62-5.32,15-4.36,10.47,4.38,8.31,12.66c-1.47,5.58-8.12,27.46-8.12,27.46l-19.46.08s6-20.21,6.71-22.65.21-5.11-2.34-5.11c-3.41,0-4.79,2.45-5.32,4.68s-6.82,22.87-6.82,22.87Z" transform="translate(-337.97 -495.25)"/><path class="cls-1" d="M529.13,542.71l34.43-.07c2.66-7.12-.89-21-21.55-22-21.79-1.12-30.27,12.91-31.19,19.25-1.07,7.47,2.67,19.89,23.1,21.8,21,2,27.9-13.61,27.9-13.61H542.65s-2,6-7.45,6c-5.21,0-7.24-3.19-7.55-6.48-.25-2.55.31-4.79,1.48-4.79m10.33-14.46c8.09,0,5.75,6.81,5.75,6.81H530.63s1.6-6.81,8.83-6.81" transform="translate(-337.97 -495.25)"/><path class="cls-1" d="M481.46,509.31H445.28l-14.47,51.62h39.45c9.78,0,28.48.35,35.19-20.7,6-18.88-9.51-30.92-24-30.92m-5.39,37.16c-3.58,3.14-5.81,4-11.77,4h-7.95l8.51-30.78s4.12-.13,7.52-.13,10.13,2.39,10.08,8.22c-.07,7.52-3.14,15.86-6.39,18.72" transform="translate(-337.97 -495.25)"/><path class="cls-1" d="M409.5,561.79H393.9c-.77-5.87-2.53-11.51-8-14.63a17.67,17.67,0,0,0-8.78-2.38c-7.75.22-12.9,6.39-14.83,17H346.7l4.85-11.5L338,548.64l8-13.46c5.7,2.51,11.58,4,17.19.76a17.71,17.71,0,0,0,6.5-6.36c3.66-6.53,1-13.42-7.69-21.11.51-.87,1-1.8,1.58-2.71,1.87-3.13,3.76-6.25,6.22-10.34l8.05,10.07,7.86-10.24,7.89,13.2c-9.16,8.4-11.36,15.33-7.23,22.27s11.9,8.47,23.26,4.59c2.42,4.05,4.9,8.17,7.9,13.17l-12.7,1.95C406.18,553.79,407.72,557.51,409.5,561.79Zm-24.74-22.58-7-12-7,12Z" transform="translate(-337.97 -495.25)"/><path class="cls-1" d="M734.75,517.82h2.56a2.23,2.23,0,0,1,1.31.36,1.32,1.32,0,0,1,.5,1.14,1.42,1.42,0,0,1-.23.83,1.31,1.31,0,0,1-.66.49,1.05,1.05,0,0,1,.34.14.72.72,0,0,1,.22.2.86.86,0,0,1,.14.27,2.38,2.38,0,0,1,.07.29c0,.09,0,.19,0,.33s0,.11,0,.21,0,.16,0,.2a1.31,1.31,0,0,0,0,.17c0,.08,0,.14,0,.17s0,.08,0,.14a1.3,1.3,0,0,0,0,.15.76.76,0,0,0,0,.11.37.37,0,0,0,0,.11l.07.08h-1l0-.07,0-.09a.29.29,0,0,1,0-.09s0-.07,0-.11,0-.09,0-.12a.82.82,0,0,0,0-.14c0-.06,0-.1,0-.14s0-.08,0-.15a1.18,1.18,0,0,1,0-.16,1.42,1.42,0,0,0-.28-.91,1.26,1.26,0,0,0-.9-.24h-1.26v2.22h-.94Zm.94.77v1.69h1.25a3,3,0,0,0,.46,0,1.9,1.9,0,0,0,.39-.11.57.57,0,0,0,.29-.26,1.09,1.09,0,0,0,0-.89.53.53,0,0,0-.26-.25,1.12,1.12,0,0,0-.35-.12,2.58,2.58,0,0,0-.42,0Z" transform="translate(-337.97 -495.25)"/><path class="cls-1" d="M737,526.17a5.66,5.66,0,1,1,5.65-5.66A5.67,5.67,0,0,1,737,526.17Zm0-10.47a4.82,4.82,0,1,0,4.82,4.81A4.82,4.82,0,0,0,737,515.7Z" transform="translate(-337.97 -495.25)"/></svg>