<svg id="Слой_1" data-name="Слой 1" xmlns="http://www.w3.org/2000/svg" viewBox="0 0 47.29 47.29"><defs><style>.cls-1{fill:#e76c1e;}.cls-2{fill:#fff;}</style></defs><circle class="cls-1" cx="23.64" cy="23.64" r="23.64"/><path class="cls-2" d="M540.33,557A16.64,16.64,0,1,1,557,540.33v1.87a6.09,6.09,0,0,1-5.87,6.28H551a6,6,0,0,1-4.55-2.14.36.36,0,0,0-.28-.14h0a.53.53,0,0,0-.28.14,8.16,8.16,0,1,1-.2-12.08c.07.07.14.07.27.07h2.56v8.14A2.48,2.48,0,0,0,551,545h0a2.47,2.47,0,0,0,2.49-2.62v-2a13.09,13.09,0,1,0-6.84,11.6l1.73,3A16.84,16.84,0,0,1,540.33,557Zm0-21.26a4.63,4.63,0,1,0,4.63,4.62,4.63,4.63,0,0,0-4.63-4.62Z" transform="translate(-516.69 -516.69)"/></svg>