<svg id="Слой_1" data-name="Слой 1" xmlns="http://www.w3.org/2000/svg" viewBox="0 0 48.33 48.33"><defs><style>.cls-1{fill:#e76c1e;}.cls-2{fill:#fff;}</style></defs><circle class="cls-1" cx="24.17" cy="24.17" r="24.17"/><path class="cls-2" d="M554.49,534.47a10.49,10.49,0,0,0-.66-3.45,7.3,7.3,0,0,0-4.17-4.16,10.21,10.21,0,0,0-3.45-.67c-1.52-.07-2-.09-5.87-.09s-4.35,0-5.87.09a10.23,10.23,0,0,0-3.45.66,7,7,0,0,0-2.52,1.64,7.13,7.13,0,0,0-1.64,2.52,10.29,10.29,0,0,0-.66,3.45c-.08,1.53-.09,2-.09,5.87s0,4.35.08,5.87a10.43,10.43,0,0,0,.66,3.45,7.29,7.29,0,0,0,4.17,4.17,10.49,10.49,0,0,0,3.45.66c1.51.06,2,.08,5.86.08s4.35,0,5.87-.08a10.43,10.43,0,0,0,3.45-.66,7.27,7.27,0,0,0,4.16-4.17,10.46,10.46,0,0,0,.67-3.45c.06-1.51.08-2,.08-5.86s0-4.35-.07-5.87Zm-2.56,11.62a8.14,8.14,0,0,1-.49,2.64,4.74,4.74,0,0,1-2.71,2.7,7.62,7.62,0,0,1-2.64.49c-1.5.07-2,.09-5.75.09s-4.25,0-5.74-.09a7.62,7.62,0,0,1-2.64-.49,4.68,4.68,0,0,1-2.7-2.69,7.73,7.73,0,0,1-.49-2.64c-.07-1.51-.08-2-.08-5.75s0-4.26.08-5.75a7.62,7.62,0,0,1,.49-2.64,4.25,4.25,0,0,1,1.07-1.63,4.53,4.53,0,0,1,1.63-1.07,7.82,7.82,0,0,1,2.65-.48c1.5-.07,1.95-.09,5.74-.09s4.26,0,5.75.09a7.62,7.62,0,0,1,2.64.49,4.11,4.11,0,0,1,1.63,1.06,4.33,4.33,0,0,1,1.07,1.63,8.21,8.21,0,0,1,.49,2.64c.06,1.5.08,1.95.08,5.75s0,4.24-.08,5.74Z" transform="translate(-516.17 -516.17)"/><path class="cls-2" d="M540.34,533a7.32,7.32,0,1,0,7.31,7.32A7.31,7.31,0,0,0,540.34,533Zm0,12.06a4.75,4.75,0,1,1,4.74-4.74h0A4.74,4.74,0,0,1,540.34,545.08Z" transform="translate(-516.17 -516.17)"/><path class="cls-2" d="M549.65,532.74a1.71,1.71,0,1,1-1.71-1.71h0A1.71,1.71,0,0,1,549.65,532.74Z" transform="translate(-516.17 -516.17)"/></svg>