<svg id="Слой_1" data-name="Слой 1" xmlns="http://www.w3.org/2000/svg" xmlns:xlink="http://www.w3.org/1999/xlink" viewBox="0 0 350 70"><defs><style>.cls-1{fill:#61bfc4;}.cls-2{fill:#fff;}.cls-3{clip-path:url(#clip-path);}.cls-4{clip-path:url(#clip-path-2);}.cls-5{clip-path:url(#clip-path-3);}.cls-6{clip-path:url(#clip-path-4);}.cls-7{clip-path:url(#clip-path-5);}</style><clipPath id="clip-path"><polygon id="SVGID" class="cls-1" points="49.7 1.99 69.65 1.99 69.65 21.95 69.65 66.66 49.7 66.66 49.7 21.95 34.78 21.95 43.75 1.99 49.7 1.99"/></clipPath><clipPath id="clip-path-2"><path id="SVGID-2" data-name="SVGID" class="cls-1" d="M115.12,66.3a8.79,8.79,0,0,1-3.37,1.32,22.55,22.55,0,0,1-4.3.39,16,16,0,0,1-5-.78,11,11,0,0,1-4.23-2.48,11.77,11.77,0,0,1-2.94-4.38,16.91,16.91,0,0,1-1.09-6.47,16.29,16.29,0,0,1,1.24-6.66,12.71,12.71,0,0,1,3.18-4.34,12.18,12.18,0,0,1,4.3-2.37,15.44,15.44,0,0,1,4.65-.74,26.92,26.92,0,0,1,4.27.31,17.3,17.3,0,0,1,2.83.74l-1.13,4.81a8.77,8.77,0,0,0-2.25-.62,24.62,24.62,0,0,0-3.29-.2,8.87,8.87,0,0,0-3.14.55,6.33,6.33,0,0,0-2.44,1.7,7.71,7.71,0,0,0-1.55,2.83,13.91,13.91,0,0,0-.08,7.67,8.35,8.35,0,0,0,1.51,2.87,6.14,6.14,0,0,0,2.56,1.86,9.45,9.45,0,0,0,3.61.66,12.39,12.39,0,0,0,3.21-.35,11.15,11.15,0,0,0,2.29-.89Z"/></clipPath><clipPath id="clip-path-3"><path id="SVGID-3" data-name="SVGID" class="cls-1" d="M126.79,52.16l.85,3.45h.27l.66-3.61L133,40.34h6l-7.87,18.87A33.59,33.59,0,0,1,129.35,63a13.5,13.5,0,0,1-1.9,2.64,6.45,6.45,0,0,1-2.25,1.59,7.42,7.42,0,0,1-2.87.54,10.91,10.91,0,0,1-2.21-.16,5.46,5.46,0,0,1-1.82-.77l1.43-4.61a4.29,4.29,0,0,0,1.36.42,12.11,12.11,0,0,0,1.24.08c1.36,0,2.29-.89,2.79-2.71l-11-19.65h6.74Z"/></clipPath><clipPath id="clip-path-4"><path id="SVGID-4" data-name="SVGID" class="cls-1" d="M149.38,45c-.54,0-1,0-1.55,0a8.23,8.23,0,0,0-1.24.15v8.06a4.64,4.64,0,0,0,.51.08,4.23,4.23,0,0,0,.73,0,4.84,4.84,0,0,0,.74,0,2.47,2.47,0,0,0,.5,0,14.19,14.19,0,0,0,2.25-.16,5.53,5.53,0,0,0,2-.66,4,4,0,0,0,1.39-1.39,4.49,4.49,0,0,0,.54-2.33,3.24,3.24,0,0,0-1.82-3.18,7.4,7.4,0,0,0-1.9-.58,14.3,14.3,0,0,0-2.17-.15m-8.52-4.38c1.16-.2,2.44-.39,3.87-.51S147.56,40,149,40a34.3,34.3,0,0,1,4.37.31,12,12,0,0,1,4,1.32,8.09,8.09,0,0,1,2.86,2.75A8.8,8.8,0,0,1,161.36,49a8.87,8.87,0,0,1-1,4.34,8.64,8.64,0,0,1-2.56,3,11.78,11.78,0,0,1-3.68,1.62,17,17,0,0,1-4.22.55h-.66a607.68,607.68,0,0,0-2-.08c-.31,0-.54,0-.7-.08v9.15h-5.73Z"/></clipPath><clipPath id="clip-path-5"><polygon id="SVGID-5" data-name="SVGID" class="cls-1" points="182.01 45.38 170.62 45.38 170.62 67.47 164.88 67.47 164.88 40.34 182.01 40.34 182.01 45.38"/></clipPath></defs><polygon class="cls-2" points="25.22 27.08 33.71 27.08 12.78 66.66 12.78 38.28 1.29 38.28 1.83 1.99 36.73 1.99 25.22 27.08"/><polygon id="SVGID-6" data-name="SVGID" class="cls-1" points="49.7 1.99 69.65 1.99 69.65 21.95 69.65 66.66 49.7 66.66 49.7 21.95 34.78 21.95 43.75 1.99 49.7 1.99"/><g class="cls-3"><rect class="cls-1" x="34.78" y="1.99" width="34.88" height="64.67"/></g><polygon class="cls-2" points="111.68 8.68 101.29 8.68 101.29 30.77 95.56 30.77 95.56 3.64 117.42 3.64 117.42 30.77 111.68 30.77 111.68 8.68"/><polygon class="cls-2" points="139.04 19.57 128.19 19.57 128.19 30.77 122.45 30.77 122.45 3.64 128.19 3.64 128.19 14.53 139.04 14.53 139.04 3.64 144.78 3.64 144.78 30.77 139.04 30.77 139.04 19.57"/><polygon class="cls-2" points="149.81 3.64 167.29 3.64 167.29 8.68 155.55 8.68 155.55 14.57 166.21 14.57 166.21 19.61 155.55 19.61 155.55 25.73 167.49 25.73 167.49 30.77 149.81 30.77 149.81 3.64"/><path class="cls-2" d="M179.19,15c.39,0,.85,0,1.4,0a11.82,11.82,0,0,0,1.32-.08,8.66,8.66,0,0,0,2.75-1.39,2.87,2.87,0,0,0,1.12-2.37,2.89,2.89,0,0,0-.43-1.62,2.65,2.65,0,0,0-1.12-1A5.8,5.8,0,0,0,182.6,8a15.34,15.34,0,0,0-1.82-.11c-.74,0-1.43,0-2.05,0s-1.13.07-1.48.11V15ZM181,26.51a12.71,12.71,0,0,0,2.1-.19,5,5,0,0,0,1.74-.66,3.33,3.33,0,0,0,1.2-1.13,3.09,3.09,0,0,0,.43-1.66,3.46,3.46,0,0,0-.54-2,3.37,3.37,0,0,0-1.4-1.12,7.26,7.26,0,0,0-1.94-.47c-.73,0-1.43-.08-2.17-.08h-3.18v7.06a4.93,4.93,0,0,0,.7.11,7.24,7.24,0,0,0,1,0,10.2,10.2,0,0,0,1.12,0A8.54,8.54,0,0,0,181,26.51ZM191.59,10a6.75,6.75,0,0,1-.27,2,6,6,0,0,1-.93,1.86,6,6,0,0,1-1.63,1.47,6.94,6.94,0,0,1-2.44.89v.23a8.18,8.18,0,0,1,2.41.58,6.75,6.75,0,0,1,2,1.28,7.06,7.06,0,0,1,1.32,2,7.77,7.77,0,0,1,.47,2.79,6.47,6.47,0,0,1-1,3.64,8.33,8.33,0,0,1-2.6,2.48,11.79,11.79,0,0,1-3.64,1.44,18.75,18.75,0,0,1-4.19.46h-1.82c-.78,0-1.59,0-2.44,0s-1.75-.11-2.64-.19a22.34,22.34,0,0,1-2.44-.35V3.84q.81-.12,1.86-.24c.66-.07,1.4-.15,2.21-.19l2.4-.12c.82,0,1.67,0,2.48,0a25.65,25.65,0,0,1,4,.27,12.08,12.08,0,0,1,3.48,1,6.65,6.65,0,0,1,2.52,2.1A5.75,5.75,0,0,1,191.59,10Z"/><polygon class="cls-2" points="219.46 17.17 220.08 11.55 219.85 11.55 217.99 15.81 211.71 25.93 209.93 25.93 203.26 15.77 201.44 11.59 201.21 11.59 202.02 17.13 202.02 30.77 196.59 30.77 196.59 3.64 201.79 3.64 209.62 16.16 211.09 19.15 211.28 19.15 212.56 16.09 220.04 3.64 225.2 3.64 225.2 30.77 219.46 30.77 219.46 17.17"/><path class="cls-2" d="M235.35,17.21a15.62,15.62,0,0,0,.39,3.68,9.85,9.85,0,0,0,1.16,2.87,5.16,5.16,0,0,0,2,1.86,6,6,0,0,0,2.86.66,5.76,5.76,0,0,0,4.77-2.1c1.12-1.39,1.71-3.72,1.71-7a18,18,0,0,0-.35-3.61,8.92,8.92,0,0,0-1.13-2.9,5.79,5.79,0,0,0-2-1.9,6.38,6.38,0,0,0-3-.66,5.72,5.72,0,0,0-4.73,2.17c-1.12,1.43-1.7,3.76-1.7,6.9m-6.08,0a19,19,0,0,1,.85-6,12.38,12.38,0,0,1,2.48-4.46A10.5,10.5,0,0,1,236.51,4a14.07,14.07,0,0,1,5.27-.93,14.22,14.22,0,0,1,5.51,1A11,11,0,0,1,251.2,7a12.64,12.64,0,0,1,2.37,4.45,20.75,20.75,0,0,1,.77,5.74,19,19,0,0,1-.85,6A12.5,12.5,0,0,1,251,27.6,10.59,10.59,0,0,1,247,30.35a14.68,14.68,0,0,1-10.7-.08,10.14,10.14,0,0,1-3.92-2.87A12,12,0,0,1,230,22.94,20.63,20.63,0,0,1,229.27,17.21Z"/><polygon class="cls-2" points="281.28 17.17 281.9 11.55 281.66 11.55 279.8 15.81 273.52 25.93 271.74 25.93 265.08 15.77 263.25 11.59 263.02 11.59 263.83 17.13 263.83 30.77 258.41 30.77 258.41 3.64 263.6 3.64 271.43 16.16 272.9 19.15 273.1 19.15 274.38 16.09 281.86 3.64 287.01 3.64 287.01 30.77 281.28 30.77 281.28 17.17"/><path class="cls-2" d="M299.06,20.46h6.21l-2.1-5.65-.93-4.31h-.19l-.93,4.34ZM306.62,25h-9.14l-2.21,5.77h-5.74L300.15,3.45h4.22L315,30.77H309Z"/><polygon class="cls-2" points="317.55 30.77 317.55 3.64 323.29 3.64 323.29 25.73 330.26 25.73 330.26 3.64 336 3.64 336 25.73 342.98 25.73 342.98 3.64 348.71 3.64 348.71 30.77 317.55 30.77"/><path id="SVGID-7" data-name="SVGID" class="cls-1" d="M115.12,66.3a8.79,8.79,0,0,1-3.37,1.32,22.55,22.55,0,0,1-4.3.39,16,16,0,0,1-5-.78,11,11,0,0,1-4.23-2.48,11.77,11.77,0,0,1-2.94-4.38,16.91,16.91,0,0,1-1.09-6.47,16.29,16.29,0,0,1,1.24-6.66,12.71,12.71,0,0,1,3.18-4.34,12.18,12.18,0,0,1,4.3-2.37,15.44,15.44,0,0,1,4.65-.74,26.92,26.92,0,0,1,4.27.31,17.3,17.3,0,0,1,2.83.74l-1.13,4.81a8.77,8.77,0,0,0-2.25-.62,24.62,24.62,0,0,0-3.29-.2,8.87,8.87,0,0,0-3.14.55,6.33,6.33,0,0,0-2.44,1.7,7.71,7.71,0,0,0-1.55,2.83,13.91,13.91,0,0,0-.08,7.67,8.35,8.35,0,0,0,1.51,2.87,6.14,6.14,0,0,0,2.56,1.86,9.45,9.45,0,0,0,3.61.66,12.39,12.39,0,0,0,3.21-.35,11.15,11.15,0,0,0,2.29-.89Z"/><g class="cls-4"><rect class="cls-1" x="94.23" y="39.79" width="20.89" height="28.22"/></g><path id="SVGID-8" data-name="SVGID" class="cls-1" d="M126.79,52.16l.85,3.45h.27l.66-3.61L133,40.34h6l-7.87,18.87A33.59,33.59,0,0,1,129.35,63a13.5,13.5,0,0,1-1.9,2.64,6.45,6.45,0,0,1-2.25,1.59,7.42,7.42,0,0,1-2.87.54,10.91,10.91,0,0,1-2.21-.16,5.46,5.46,0,0,1-1.82-.77l1.43-4.61a4.29,4.29,0,0,0,1.36.42,12.11,12.11,0,0,0,1.24.08c1.36,0,2.29-.89,2.79-2.71l-11-19.65h6.74Z"/><g class="cls-5"><rect class="cls-1" x="114.08" y="40.34" width="24.92" height="27.4"/></g><path id="SVGID-9" data-name="SVGID" class="cls-1" d="M149.38,45c-.54,0-1,0-1.55,0a8.23,8.23,0,0,0-1.24.15v8.06a4.64,4.64,0,0,0,.51.08,4.23,4.23,0,0,0,.73,0,4.84,4.84,0,0,0,.74,0,2.47,2.47,0,0,0,.5,0,14.19,14.19,0,0,0,2.25-.16,5.53,5.53,0,0,0,2-.66,4,4,0,0,0,1.39-1.39,4.49,4.49,0,0,0,.54-2.33,3.24,3.24,0,0,0-1.82-3.18,7.4,7.4,0,0,0-1.9-.58,14.3,14.3,0,0,0-2.17-.15m-8.52-4.38c1.16-.2,2.44-.39,3.87-.51S147.56,40,149,40a34.3,34.3,0,0,1,4.37.31,12,12,0,0,1,4,1.32,8.09,8.09,0,0,1,2.86,2.75A8.8,8.8,0,0,1,161.36,49a8.87,8.87,0,0,1-1,4.34,8.64,8.64,0,0,1-2.56,3,11.78,11.78,0,0,1-3.68,1.62,17,17,0,0,1-4.22.55h-.66a607.68,607.68,0,0,0-2-.08c-.31,0-.54,0-.7-.08v9.15h-5.73Z"/><g class="cls-6"><rect class="cls-1" x="140.86" y="39.95" width="20.5" height="27.52"/></g><polygon id="SVGID-10" data-name="SVGID" class="cls-1" points="182.01 45.38 170.62 45.38 170.62 67.47 164.88 67.47 164.88 40.34 182.01 40.34 182.01 45.38"/><g class="cls-7"><rect class="cls-1" x="164.89" y="40.34" width="17.13" height="27.13"/></g><path id="SVGID-11" data-name="SVGID" class="cls-1" d="M191.55,52.16l.85,3.45h.27l.66-3.61,4.42-11.66h6l-7.87,18.87A33.59,33.59,0,0,1,194.11,63a13.1,13.1,0,0,1-1.9,2.64A6.45,6.45,0,0,1,190,67.2a7.42,7.42,0,0,1-2.87.54,11,11,0,0,1-2.21-.16,5.46,5.46,0,0,1-1.82-.77l1.44-4.61a4.24,4.24,0,0,0,1.35.42,12.3,12.3,0,0,0,1.24.08c1.36,0,2.29-.89,2.79-2.71l-11-19.65h6.74Z"/><polygon id="SVGID-12" data-name="SVGID" class="cls-1" points="225.03 45.38 216.43 45.38 216.43 67.47 210.69 67.47 210.69 45.38 202.09 45.38 202.09 40.34 225.03 40.34 225.03 45.38"/></svg>