<svg id="Слой_1" data-name="Слой 1" xmlns="http://www.w3.org/2000/svg" viewBox="0 0 153.86 31.1"><defs><style>.cls-1{fill:#e10c19;}</style></defs><path class="cls-1" d="M604,534.13c-8.49.28-11.54,4.34-12,7.12-.64,3.73.56,6.89,6.4,8.41,7.25,1.88,14.37-1.77,15.5-7.32,1-5.07-5.14-8.36-9.88-8.21m1.74,9.34c-1.1,2.75-2,3.61-4.45,3.4-2.1-.18-2.82-2.42-1.7-5.62.89-2.55,2.17-4.16,4.49-4,2,.17,3.21,2.32,1.66,6.18" transform="translate(-463.4 -524.78)"/><polygon class="cls-1" points="109.01 9.79 116.26 9.79 118.04 16.22 121.56 9.88 129.57 9.91 117.94 31.06 110.11 31.1 113.3 25.32 109.01 9.79"/><path class="cls-1" d="M550.16,549.5l4.41-15h7L562,536s3.27-2,5.7-1.66,4,1.67,3.16,4.82c-.56,2.12-3.09,10.43-3.09,10.43l-7.39,0s2.26-7.69,2.55-8.62.08-1.94-.89-1.94a2,2,0,0,0-2,1.78c-.2.85-2.59,8.7-2.59,8.7Z" transform="translate(-463.4 -524.78)"/><path class="cls-1" d="M536.08,542.82l13.08,0c1-2.71-.34-8-8.19-8.38-8.28-.43-11.51,4.9-11.86,7.31-.4,2.84,1,7.56,8.79,8.29,8,.75,10.6-5.17,10.6-5.17h-7.29s-.76,2.26-2.83,2.26a2.59,2.59,0,0,1-2.87-2.47c-.09-1,.12-1.82.57-1.82m3.92-5.49c3.08,0,2.19,2.58,2.19,2.58h-5.55a3.45,3.45,0,0,1,3.36-2.58" transform="translate(-463.4 -524.78)"/><path class="cls-1" d="M518,530.13H504.2l-5.5,19.62h15c3.72,0,10.83.13,13.38-7.87,2.29-7.18-3.61-11.75-9.12-11.75m-2.05,14.12c-1.36,1.2-2.21,1.51-4.47,1.51h-3l3.23-11.7s1.57,0,2.86,0,3.85.91,3.83,3.13c0,2.86-1.19,6-2.43,7.11" transform="translate(-463.4 -524.78)"/><path class="cls-1" d="M490.59,550.08h-5.93c-.29-2.23-1-4.38-3-5.56a6.73,6.73,0,0,0-3.34-.91c-2.94.08-4.9,2.43-5.63,6.48h-5.93l1.84-4.38-5.16-.63,3-5.12c2.17.95,4.4,1.5,6.53.29a6.77,6.77,0,0,0,2.48-2.42c1.39-2.48.36-5.1-2.93-8,.2-.33.4-.69.6-1l2.37-3.93,3.06,3.82,3-3.89,3,5c-3.48,3.19-4.31,5.83-2.74,8.46s4.52,3.22,8.84,1.75l3,5-4.82.74Zm-9.4-8.59-2.66-4.57-2.67,4.57Z" transform="translate(-463.4 -524.78)"/><path class="cls-1" d="M614.24,533.36h1a.85.85,0,0,1,.5.14.49.49,0,0,1,.2.43.57.57,0,0,1-.09.32.6.6,0,0,1-.25.19.29.29,0,0,1,.13,0l.08.07a.28.28,0,0,1,.05.11l0,.11s0,.07,0,.12,0,0,0,.08v.14a.15.15,0,0,0,0,.07.11.11,0,0,0,0,0s0,0,0,.06v0l0,0,0,0h-.39s0,0,0,0a9365551663.74,9365551663.74,0,0,0,0-.06v-.05s0,0,0,0V535a.54.54,0,0,0-.11-.34.48.48,0,0,0-.34-.09h-.48v.84h-.36Zm.36.3v.64h.65l.15,0a.24.24,0,0,0,.11-.09.34.34,0,0,0,0-.18.25.25,0,0,0,0-.16.17.17,0,0,0-.1-.1.28.28,0,0,0-.13,0h-.68Z" transform="translate(-463.4 -524.78)"/><path class="cls-1" d="M615.11,536.54a2.15,2.15,0,1,1,2.15-2.15A2.16,2.16,0,0,1,615.11,536.54Zm0-4a1.83,1.83,0,1,0,1.83,1.83A1.83,1.83,0,0,0,615.11,532.56Z" transform="translate(-463.4 -524.78)"/></svg>