<svg id="Слой_1" data-name="Слой 1" xmlns="http://www.w3.org/2000/svg" viewBox="0 0 57.28 57.28"><defs><style>.cls-1{fill:#e76c1e;}.cls-2{fill:#fff;}</style></defs><circle class="cls-1" cx="28.64" cy="28.64" r="28.64"/><path class="cls-2" d="M560.83,552.59v.21c-5.87-2.9-6.42-3.32-7.25-2.14-.55.75-2.07,2.55-2.48,3.1s-.9.55-1.73.21A20.88,20.88,0,0,1,543,550a23,23,0,0,1-4.42-5.52c-.75-1.38.83-1.51,2.35-4.34a1.39,1.39,0,0,0-.07-1.38c-.2-.42-1.79-4.28-2.41-5.8s-1.31-1.38-1.8-1.38c-1.52-.21-2.69-.21-3.66.83-4.27,4.69-3.17,9.59.49,14.7,7.18,9.45,11,11.18,18,13.59a11,11,0,0,0,5,.35c1.52-.21,4.69-1.94,5.38-3.8a6.52,6.52,0,0,0,.49-3.79c-.21-.35-.69-.56-1.52-.9Z" transform="translate(-517.72 -517.72)"/></svg>