<svg id="Слой_1" data-name="Слой 1" xmlns="http://www.w3.org/2000/svg" viewBox="0 0 38.87 38.87"><defs><style>.cls-1{fill:#fff;}</style></defs><path class="cls-1" d="M546.74,538.9,538.67,533a1,1,0,0,0-1-.08,1,1,0,0,0-.53.87v11.73a1,1,0,0,0,1,1,1,1,0,0,0,.57-.19l8.07-5.86a1,1,0,0,0,.41-.79,1,1,0,0,0-.41-.79Zm0,0" transform="translate(-520.89 -520.23)"/><path class="cls-1" d="M540.33,520.23a19.44,19.44,0,1,0,19.44,19.44,19.44,19.44,0,0,0-19.44-19.44Zm0,35.63a16.19,16.19,0,1,1,16.19-16.19,16.19,16.19,0,0,1-16.19,16.19Zm0,0" transform="translate(-520.89 -520.23)"/></svg>