<svg id="Слой_1" data-name="Слой 1" xmlns="http://www.w3.org/2000/svg" viewBox="0 0 257.01 52.06"><defs><style>.cls-1{fill:#fff;}</style></defs><path class="cls-1" d="M-766.28,859.23c.18-.58.34-1.17.49-1.76.08-.32.3-.67,0-.91l-.51-.42a31.41,31.41,0,0,0-10.93-5.66,32.89,32.89,0,0,0-20.38.84,30.07,30.07,0,0,0-5.13,2.51c-.83.51-1.64,1-2.42,1.64-.36.27-.72.55-1.06.83-.18.14-.35.29-.52.44l.18.75a31.22,31.22,0,0,0,5.11,11A21.72,21.72,0,0,1-786.08,862a21.72,21.72,0,0,1,15.22,6.4,30.35,30.35,0,0,0,3.34-5.83C-767,861.46-766.64,860.35-766.28,859.23Z" transform="translate(821.4 -831.23)"/><path class="cls-1" d="M-753.18,832.48c-.08-.25-.22-1.25-.5-1.25h-13a38.25,38.25,0,0,1,3.14,25.51,34.07,34.07,0,0,1-4.7,11.41c-.3.46-.61.9-.93,1.34-.21.29-.41.32-.16.63s.33.41.49.62a25.63,25.63,0,0,1,1.71,2.54,24.94,24.94,0,0,1,2.41,5.68c.4,1.43.59,2.88.88,4.32a43.09,43.09,0,0,0,8-11.69,54.21,54.21,0,0,0,5-25.71A54.36,54.36,0,0,0-753.18,832.48Z" transform="translate(821.4 -831.23)"/><path class="cls-1" d="M-720,850.06c-4.59-6.07-13.78-7.68-20.55-4.58-7.12,3.25-9.6,11.48-8.45,18.77h9.63a11.25,11.25,0,0,1-.05-1.16h22.56c.16,0,.28-1.44.3-1.66A18.73,18.73,0,0,0-720,850.06Zm-19.25,6.5a6.63,6.63,0,0,1,2.35-4h0a6.45,6.45,0,0,1,10.25,4Z" transform="translate(821.4 -831.23)"/><path class="cls-1" d="M-727.67,867.26a6.11,6.11,0,0,1-1.49,1.71,6.3,6.3,0,0,1-4.47,1,6.34,6.34,0,0,1-4.13-1.68,6.48,6.48,0,0,1-1.64-4.08H-749a15.73,15.73,0,0,0,4.87,9.39,16.53,16.53,0,0,0,9.42,3.89,16.67,16.67,0,0,0,10.63-2.29,16.84,16.84,0,0,0,6.53-8.23h-9.63C-727.52,867-727.49,867-727.67,867.26Z" transform="translate(821.4 -831.23)"/><path class="cls-1" d="M-803.53,868.83c-.3-.44-.6-.89-.88-1.35a33.24,33.24,0,0,1-2.75-5.62,38.73,38.73,0,0,1-.44-25.76,33.12,33.12,0,0,1,2.07-4.87h-12.9c-.33,0-.25.13-.37.49-.35,1.1-.67,2.2-1,3.31a55.91,55.91,0,0,0-1.65,13.32,54.67,54.67,0,0,0,5,23.24h0a43.7,43.7,0,0,0,8,11.69,42.28,42.28,0,0,1,1.19-5.33,24.61,24.61,0,0,1,2.63-5.53,22.09,22.09,0,0,1,1.67-2.3c.25-.31,0-.34-.16-.63Z" transform="translate(821.4 -831.23)"/><path class="cls-1" d="M-694.59,844.29a13.44,13.44,0,0,0-6.13,1.06,10.09,10.09,0,0,0-3.89,3.24q0-7.47,0-14.94h-9.61v42.61h8.84c.1,0,.68.08.75,0s0-1.29,0-1.53c0-.55,0-1.11,0-1.66,1.82,3,5.47,4.2,8.8,4.24a13,13,0,0,0,9.59-4c5.61-5.82,6.32-15.92,2-22.68A13.22,13.22,0,0,0-694.59,844.29Zm-2.29,24a7.69,7.69,0,0,1-3.92-.35c-3.69-1.37-5-5.68-4.26-9.29a7.06,7.06,0,0,1,7.61-5.76C-689.3,853.57-688.78,867-696.88,868.27Z" transform="translate(821.4 -831.23)"/><path class="cls-1" d="M-570.17,848a17.34,17.34,0,0,0-21.6.45,15.18,15.18,0,0,0-4.63,7.76h0a18.73,18.73,0,0,0,1.09,12.43,15.09,15.09,0,0,0,8.2,7.51c7,2.71,15.79.68,20-5.75C-562.61,863.59-563.73,853.17-570.17,848Zm-4.49,16.89a6.87,6.87,0,0,1-9.65,2.73c-3.5-2.15-4.12-7.35-2.34-10.8a5.45,5.45,0,0,1,.35-.62h0a6.78,6.78,0,0,1,9.26-2C-573.68,856.41-573,861.44-574.66,864.88Z" transform="translate(821.4 -831.23)"/><path class="cls-1" d="M-597.19,869.22c-2.3.06-5.91.49-6.84-2.25a15,15,0,0,1-.22-4.45v-9.38c0-.48-.1-.51.38-.51h5.93c.46,0,.25-.55.25-1V845.5c0-.07,0-.29,0-.29h-6.51s0-10.35,0-11.44h0c-.91,0-9.57,0-9.57,0l0,10.87c0,.2.11.57-.13.57h-2.47c-.52,0-.69-.16-.69.35v6.94c0,.3,1,.13,1.21.13h2.08v10.42c0,4.62-.25,11.09,4.79,13.28a14.73,14.73,0,0,0,5.58,1c1.28,0,2.57,0,3.85-.12l2.22-.21c.34,0,.26,0,.26-.32Q-597.17,873-597.19,869.22Z" transform="translate(821.4 -831.23)"/><path class="cls-1" d="M-627.13,857.17c-1.6-.31-3.47-.35-4.79-1.41-1.55-1.24-.76-3.66.9-4.33,2.13-.86,4.78-.3,6.94.07,1.08.19,2.15.41,3.22.68a11.47,11.47,0,0,0,1.31.35l-.06-5.4c0-.41,0-.82,0-1.24s0-.42-.46-.62a20.58,20.58,0,0,0-6.21-1.23c-3.72-.25-7.79-.34-11.25,1.27a9.28,9.28,0,0,0-5.32,8c-.33,3.71.69,7.19,4.13,9.05a19.33,19.33,0,0,0,5.26,1.67c1.52.31,3.58.5,4.68,1.75a2.41,2.41,0,0,1-.84,3.65,6.92,6.92,0,0,1-3.89.62,37.27,37.27,0,0,1-4.72-.41,10,10,0,0,1-4-1.29v7.34h0a29,29,0,0,0,12.5,1.61c3.39-.22,6.93-1.35,9.19-4a10.93,10.93,0,0,0,1.81-10.33C-620,859.55-623.81,857.81-627.13,857.17Z" transform="translate(821.4 -831.23)"/><path class="cls-1" d="M-649.74,845.25h-5.85c-.63,0-.45.13-.45.78v2.58a9.84,9.84,0,0,0-2.75-2.67,11.34,11.34,0,0,0-4.88-1.49,14.68,14.68,0,0,0-10,2.41,14.31,14.31,0,0,0-5.18,9.08,23.33,23.33,0,0,0,.81,12c1.9,5.29,6.3,9.05,12,9.36A12.16,12.16,0,0,0-656,873v2.67c0,.71-.16.77.52.77h8.8c.26,0,.27,0,.27-.2V845.31A26.72,26.72,0,0,0-649.74,845.25Zm-11.49,23a7.69,7.69,0,0,1-3.92-.35c-3.69-1.37-5-5.68-4.26-9.29a7.05,7.05,0,0,1,7.6-5.76C-653.65,853.57-653.13,867-661.23,868.27Z" transform="translate(821.4 -831.23)"/></svg>